<?xml version="1.0" encoding="UTF-8" standalone="no"?>
<!-- Created with Inkscape (http://www.inkscape.org/) -->

<svg
   width="65mm"
   height="65mm"
   viewBox="0 0 65 65"
   version="1.1"
   id="svg1"
   xmlns="http://www.w3.org/2000/svg"
   xmlns:svg="http://www.w3.org/2000/svg">
  <defs
     id="defs1">
    <rect
       x="56.555296"
       y="213.92655"
       width="84.587051"
       height="23.605689"
       id="rect4" />
  </defs>
  <g
     id="text5"
     style="font-size:7.30162px;font-family:Garamond;-inkscape-font-specification:Garamond;letter-spacing:0px;fill:#504416;stroke-width:0.260772"
     transform="matrix(0.99993338,1.3294832e-4,-1.329306e-4,1.0000666,0,0)"
     aria-label="KNAPVÆRK">
    <path
       style="font-family:'Baskerville Old Face';-inkscape-font-specification:'Baskerville Old Face';letter-spacing:-0.0511361px;direction:rtl"
       d="m 13.69758,30.689485 1.508098,-1.497403 q 0.224611,-0.221045 0.278089,-0.29948 0.05704,-0.082 0.05704,-0.178263 0,-0.174697 -0.171131,-0.263828 -0.08913,-0.04278 -0.299481,-0.06417 v -0.082 h 1.53662 v 0.082 q -0.15687,0.01426 -0.263828,0.05348 -0.103392,0.03565 -0.228175,0.124783 -0.139045,0.09983 -0.477743,0.424264 l -1.155139,1.108791 1.643577,2.096364 0.203219,0.260263 q 0.224611,0.278089 0.467047,0.434959 0.146175,0.09626 0.256698,0.139045 0.110522,0.03922 0.278089,0.06061 v 0.082 h -2.356626 v -0.082 q 0.267393,-0.02139 0.385046,-0.08913 0.117653,-0.06774 0.117653,-0.199654 0,-0.14261 -0.146175,-0.363655 -0.07131,-0.106957 -0.267393,-0.370785 -0.196089,-0.263828 -0.331568,-0.427829 l -0.80218,-0.994703 -0.231741,0.228175 v 1.180096 q 0,0.363655 0.03922,0.541917 0.04278,0.174697 0.153305,0.288785 0.09626,0.09983 0.221045,0.14974 0.128349,0.04635 0.335133,0.05704 v 0.082 H 12.16809 v -0.082 q 0.206785,-0.0107 0.331568,-0.05704 0.128349,-0.04991 0.22461,-0.14974 0.114088,-0.114088 0.153306,-0.288785 0.03922,-0.174697 0.03922,-0.541917 v -2.627585 q 0,-0.36722 -0.03922,-0.541917 -0.03922,-0.174697 -0.153306,-0.288785 -0.09626,-0.103392 -0.22461,-0.14974 -0.128349,-0.04635 -0.331568,-0.05704 v -0.082 h 2.278191 v 0.082 q -0.203219,0.0107 -0.331567,0.05704 -0.124784,0.04635 -0.224611,0.14974 -0.110522,0.114088 -0.153305,0.29235 -0.03922,0.174697 -0.03922,0.538352 z"
       id="path1" />
    <path
       style="font-family:'Baskerville Old Face';-inkscape-font-specification:'Baskerville Old Face';letter-spacing:-0.204544px;direction:rtl"
       d="m 18.181434,28.949646 v 3.101762 q 0,0.36722 0.03922,0.541917 0.04278,0.174697 0.153306,0.288785 0.09983,0.103392 0.22461,0.14974 0.128349,0.04635 0.331568,0.05704 v 0.082 h -1.643578 v -0.082 q 0.203219,-0.0107 0.328003,-0.05704 0.128348,-0.04635 0.228175,-0.14974 0.110523,-0.114088 0.149741,-0.288785 0.04278,-0.178262 0.04278,-0.541917 v -2.63115 q 0,-0.36009 -0.04278,-0.534787 -0.03922,-0.178262 -0.149741,-0.29235 -0.09626,-0.103392 -0.22461,-0.14974 -0.124784,-0.04635 -0.331568,-0.05704 v -0.082 h 1.372619 l 2.894978,3.693593 v -2.574106 q 0,-0.36722 -0.04278,-0.541917 -0.03922,-0.174697 -0.14974,-0.288785 -0.09983,-0.103392 -0.228175,-0.14974 -0.124784,-0.04635 -0.328003,-0.05704 v -0.082 h 1.643578 v 0.082 q -0.356525,0 -0.556178,0.206784 -0.110523,0.114088 -0.153306,0.29235 -0.03922,0.174697 -0.03922,0.534787 v 3.750637 h -0.160436 z"
       id="path2" />
    <path
       style="font-family:'Baskerville Old Face';-inkscape-font-specification:'Baskerville Old Face';letter-spacing:-0.204544px;direction:rtl"
       d="m 27.560267,33.170895 h -2.342366 v -0.082 q 0.317307,-0.02852 0.442091,-0.106957 0.221045,-0.139045 0.221045,-0.385047 0,-0.146175 -0.09983,-0.392177 l -0.06061,-0.14974 -0.342264,-0.841397 H 23.80963 l -0.185393,0.492003 -0.08913,0.221045 q -0.160436,0.392177 -0.160436,0.616788 0,0.131914 0.05704,0.246001 0.06061,0.114088 0.160436,0.185393 0.139045,0.09626 0.356524,0.114088 v 0.082 h -1.597229 v -0.082 q 0.188958,-0.0107 0.331568,-0.0927 0.14261,-0.082 0.278089,-0.263828 0.114088,-0.146175 0.221045,-0.374351 0.110523,-0.231741 0.288785,-0.691657 l 1.304879,-3.362026 h 0.203219 l 1.550881,3.747072 q 0.174697,0.424264 0.278089,0.606091 0.103392,0.181828 0.224611,0.274524 0.08557,0.06417 0.196088,0.09983 0.110523,0.03209 0.331568,0.05704 z m -2.238974,-2.103494 -0.748701,-1.846797 -0.705918,1.846797 z"
       id="path3" />
    <path
       style="font-family:'Baskerville Old Face';-inkscape-font-specification:'Baskerville Old Face';direction:rtl"
       d="m 28.985039,30.771485 v 1.279923 q 0,0.363655 0.03922,0.541917 0.04278,0.174697 0.153306,0.288785 0.09626,0.09983 0.221045,0.14974 0.128349,0.04635 0.335133,0.05704 v 0.082 H 27.45555 v -0.082 q 0.206784,-0.0107 0.331567,-0.05704 0.128349,-0.04991 0.224611,-0.14974 0.114088,-0.114088 0.153305,-0.288785 0.03922,-0.174697 0.03922,-0.541917 v -2.627585 q 0,-0.306611 -0.02852,-0.470612 -0.02496,-0.167567 -0.08913,-0.270959 -0.0927,-0.14261 -0.235306,-0.210349 -0.14261,-0.07131 -0.370786,-0.08557 h -0.02496 v -0.082 h 2.149842 q 0.563309,0 0.830702,0.05704 0.267393,0.05704 0.488438,0.228176 0.506265,0.385046 0.506265,1.02679 0,0.65244 -0.513395,0.955486 -0.267393,0.15687 -0.648875,0.188958 -0.121218,0.01069 -0.5847,0.01069 z m 0,-0.114087 h 0.349394 q 0.35296,0 0.541918,-0.04991 0.192523,-0.05348 0.342263,-0.192523 0.349394,-0.317307 0.349394,-0.844963 0,-0.29235 -0.103392,-0.534787 -0.09983,-0.246001 -0.288785,-0.399307 -0.21748,-0.181827 -0.51696,-0.213915 -0.082,-0.0071 -0.374351,-0.0071 h -0.299481 z"
       id="path4" />
    <path
       style="font-family:'Baskerville Old Face';-inkscape-font-specification:'Baskerville Old Face';letter-spacing:-0.782266px;direction:rtl"
       d="m 31.380884,28.304336 h 2.353061 v 0.082 q -0.267393,0.02496 -0.385046,0.082 -0.110523,0.05348 -0.178262,0.167566 -0.06774,0.110523 -0.06774,0.242437 0,0.0927 0.01783,0.164001 0.01783,0.0713 0.106958,0.310176 l 1.055312,2.870022 1.023225,-2.517063 q 0.213915,-0.531221 0.213915,-0.773658 0,-0.135479 -0.04278,-0.253132 -0.04278,-0.117653 -0.114088,-0.181827 -0.07131,-0.06061 -0.156871,-0.08557 -0.08557,-0.02496 -0.221045,-0.02496 v -0.082 h 1.586534 v 0.082 q -0.196089,0.01783 -0.342264,0.09626 -0.14261,0.07843 -0.274524,0.238871 -0.08913,0.114088 -0.188958,0.313741 -0.09626,0.196089 -0.267393,0.609657 l -1.46175,3.526027 h -0.14974 l -1.418967,-3.64368 q -0.27809,-0.716614 -0.445656,-0.909137 -0.106957,-0.121218 -0.263828,-0.174697 -0.153306,-0.05704 -0.377916,-0.05704 z"
       id="path5" />
    <path
       style="font-family:'Baskerville Old Face';-inkscape-font-specification:'Baskerville Old Face';direction:rtl"
       d="m 38.609721,33.088894 q 0.203219,-0.0107 0.331568,-0.05704 0.128348,-0.04635 0.22461,-0.14974 0.110523,-0.114088 0.14974,-0.28522 0.04278,-0.174697 0.04278,-0.527656 v -0.830702 h -1.832535 l -0.5847,0.834267 q -0.303046,0.431395 -0.303046,0.613222 0,0.185393 0.188958,0.295916 0.14261,0.082 0.406438,0.106957 v 0.082 h -1.590099 v -0.082 q 0.303046,-0.09626 0.492004,-0.263828 0.188957,-0.171132 0.549047,-0.684527 l 2.288887,-3.240807 q 0.14974,-0.210349 0.14974,-0.29235 0,-0.117653 -0.14974,-0.174697 -0.0927,-0.03565 -0.310176,-0.04278 l -0.05348,-0.0036 v -0.082 h 3.832637 l 0.06061,1.176531 -0.082,0.0071 q -0.06061,-0.324437 -0.167567,-0.51696 -0.103392,-0.192523 -0.295915,-0.331568 -0.167566,-0.121218 -0.402872,-0.171131 -0.231741,-0.05348 -0.598961,-0.05348 h -0.816441 v 2.139146 h 0.213914 q 0.324438,0 0.488439,-0.04278 0.164001,-0.04278 0.267393,-0.153305 0.09983,-0.103392 0.146175,-0.246002 0.04991,-0.14261 0.082,-0.417133 l 0.082,0.0036 -0.02852,1.914536 h -0.082 q -0.06061,-0.50983 -0.263828,-0.72731 -0.103392,-0.114088 -0.274524,-0.167566 -0.167567,-0.05348 -0.427829,-0.05348 h -0.203219 v 0.816441 q 0,0.188958 0.01069,0.431394 0.01426,0.253133 0.03565,0.399308 0.02496,0.14261 0.07131,0.253132 0.106957,0.249567 0.360089,0.374351 0.256698,0.121218 0.673832,0.121218 0.420698,0 0.709483,-0.106957 0.288785,-0.110523 0.470612,-0.338698 0.128349,-0.153306 0.206785,-0.349394 0.082,-0.196089 0.14974,-0.516961 l 0.082,0.0107 -0.04635,1.411837 h -4.253336 z m 0.748701,-1.996537 v -2.452888 l -1.739839,2.452888 z"
       id="path6" />
    <path
       style="font-family:'Baskerville Old Face';-inkscape-font-specification:'Baskerville Old Face';letter-spacing:-0.204544px;direction:rtl"
       d="m 44.688463,30.789312 v 1.262096 q 0,0.363655 0.03922,0.541917 0.04278,0.174697 0.153305,0.288785 0.09626,0.09983 0.221045,0.14974 0.128349,0.04635 0.335133,0.05704 v 0.082 h -2.278191 v -0.082 q 0.206784,-0.0107 0.331568,-0.05704 0.128349,-0.04991 0.22461,-0.14974 0.114088,-0.114088 0.153306,-0.288785 0.03922,-0.174697 0.03922,-0.541917 v -2.627585 q 0,-0.36722 -0.03922,-0.541917 -0.03922,-0.174697 -0.153306,-0.288785 -0.09626,-0.103392 -0.22461,-0.14974 -0.128349,-0.04635 -0.331568,-0.05704 v -0.082 h 1.718448 q 0.431394,0 0.566874,0.0036 0.552613,0.02496 0.866354,0.14974 0.352959,0.14261 0.545482,0.427829 0.196089,0.281654 0.196089,0.656005 0,0.556178 -0.420699,0.891311 -0.128349,0.09983 -0.285219,0.164001 -0.153306,0.06417 -0.413569,0.121219 0.213915,0.08913 0.317307,0.185392 0.082,0.07487 0.14974,0.188958 0.06774,0.110523 0.203219,0.395742 0.317307,0.65244 0.477743,0.955486 0.164001,0.29948 0.274524,0.43496 0.08913,0.110522 0.171131,0.153305 0.08557,0.04278 0.231741,0.05704 v 0.082 h -1.183661 q -0.08913,-0.196089 -0.114088,-0.249567 l -0.249567,-0.566874 q -0.22461,-0.50983 -0.452786,-0.902007 -0.228175,-0.388612 -0.417133,-0.531221 -0.09626,-0.07131 -0.206784,-0.09983 -0.110523,-0.03209 -0.270959,-0.03209 z m 0,-0.07844 h 0.135479 q 0.442091,0 0.631048,-0.04991 0.192524,-0.04991 0.36009,-0.206784 0.374351,-0.356525 0.374351,-0.884181 0,-0.281654 -0.110523,-0.527656 -0.106957,-0.249567 -0.29948,-0.410003 -0.149741,-0.121218 -0.356525,-0.167567 -0.206784,-0.04991 -0.588265,-0.04991 h -0.146175 z"
       id="path7" />
    <path
       style="font-family:'Baskerville Old Face';-inkscape-font-specification:'Baskerville Old Face';direction:rtl"
       d="m 49.211431,30.689485 1.508099,-1.497403 q 0.22461,-0.221045 0.278089,-0.29948 0.05704,-0.082 0.05704,-0.178263 0,-0.174697 -0.171132,-0.263828 -0.08913,-0.04278 -0.299481,-0.06417 v -0.082 h 1.536621 v 0.082 q -0.156871,0.01426 -0.263829,0.05348 -0.103392,0.03565 -0.228175,0.124783 -0.139045,0.09983 -0.477743,0.424264 l -1.155139,1.108791 1.643578,2.096364 0.203218,0.260263 q 0.224611,0.278089 0.467047,0.434959 0.146175,0.09626 0.256698,0.139045 0.110523,0.03922 0.278089,0.06061 v 0.082 h -2.356626 v -0.082 q 0.267393,-0.02139 0.385046,-0.08913 0.117653,-0.06774 0.117653,-0.199654 0,-0.14261 -0.146175,-0.363655 -0.07131,-0.106957 -0.267393,-0.370785 -0.196089,-0.263828 -0.331568,-0.427829 l -0.80218,-0.994703 -0.231741,0.228175 v 1.180096 q 0,0.363655 0.03922,0.541917 0.04278,0.174697 0.153305,0.288785 0.09626,0.09983 0.221046,0.14974 0.128348,0.04635 0.335133,0.05704 v 0.082 h -2.278191 v -0.082 q 0.206784,-0.0107 0.331567,-0.05704 0.128349,-0.04991 0.224611,-0.14974 0.114087,-0.114088 0.153305,-0.288785 0.03922,-0.174697 0.03922,-0.541917 v -2.627585 q 0,-0.36722 -0.03922,-0.541917 -0.03922,-0.174697 -0.153305,-0.288785 -0.09626,-0.103392 -0.224611,-0.14974 -0.128349,-0.04635 -0.331567,-0.05704 v -0.082 h 2.278191 v 0.082 q -0.203219,0.0107 -0.331568,0.05704 -0.124784,0.04635 -0.224611,0.14974 -0.110522,0.114088 -0.153305,0.29235 -0.03922,0.174697 -0.03922,0.538352 z"
       id="path8" />
  </g>
  <path
     style="font-size:2.84501px;font-family:Garamond;-inkscape-font-specification:Garamond;letter-spacing:0.319815px;direction:rtl;fill:#504416;stroke-width:0.159907"
     d="m 22.468415,35.78902 q 0.0014,-0.02084 0.01111,-0.03751 0.108355,-0.02917 0.211153,-0.0389 0.06807,-0.0056 0.08752,-0.03056 0.01389,-0.01806 0.01667,-0.13336 l 0.0097,-0.36674 -0.0014,-0.24866 0.0014,-0.325065 v -0.08613 q 0.0014,-0.293114 -0.0028,-0.365351 -0.0014,-0.01389 -0.01111,-0.0389 -0.03612,-0.01667 -0.06112,-0.02223 -0.02362,-0.0056 -0.21671,-0.04029 -0.0014,-0.01528 -0.0014,-0.02223 0,-0.0083 0.0014,-0.02223 0.02639,0 0.08613,0.0028 l 0.211153,0.0069 0.122247,0.0028 0.03612,-0.0014 q 0.0069,0 0.04029,0.0028 0.08196,0 0.09446,-0.0014 l 0.111133,-0.0083 q 0.112523,0 0.158365,0.0042 -0.0014,0.02501 -0.0097,0.05418 -0.01528,0.0028 -0.144473,0.0083 -0.129192,0.0042 -0.148641,0.01528 -0.03195,0.01806 -0.03195,0.111134 0,0.02223 -0.0028,0.09029 v 0.08335 l 0.0014,0.256996 v 0.08752 l 0.0028,0.459814 -0.0042,0.391744 0.0014,0.08613 q 0,0.04168 0.01389,0.0514 0.03473,0.0014 0.204207,0.0028 h 0.09446 l 0.240326,-0.0083 q 0.09446,-0.0028 0.134749,-0.01806 0.04029,-0.01667 0.134749,-0.09446 0.05696,-0.05001 0.08891,-0.102799 0.0069,-0.01111 0.02361,-0.03334 0.0264,-0.03612 0.07085,-0.144473 h 0.04584 q -0.0083,0.05001 -0.01806,0.09446 -0.04029,0.195872 -0.05557,0.326453 -0.0028,0.02778 -0.0056,0.0514 l -0.519548,-0.01528 q -0.669577,0 -0.794602,0.0125 -0.0389,0.0028 -0.08196,0.0028 z m 1.918744,-0.05279 q 0.01945,-0.01111 0.03473,-0.01111 h 0.03195 q 0.0097,0 0.03334,-0.0014 0.106965,-0.0097 0.126414,-0.01945 0.04862,-0.02639 0.08335,-0.09168 0.07224,-0.141694 0.162532,-0.401468 0.04306,-0.123636 0.05418,-0.15003 0.03473,-0.08335 0.06668,-0.175035 l 0.130582,-0.36535 q 0.03056,-0.08613 0.147251,-0.394523 0.02917,-0.07779 0.07085,-0.208375 l 0.04029,-0.0028 0.04862,0.0014 q 0.05973,0.118079 0.105577,0.254217 0.02501,0.07224 0.08196,0.215321 l 0.211153,0.570947 0.112522,0.309783 q 0.08891,0.263942 0.11669,0.325065 0.02778,0.05973 0.0514,0.07918 0.0069,0.0056 0.0514,0.01667 0.04584,0.01111 0.0639,0.01667 0.0639,0.01806 0.08891,0.03056 0.0056,0.01528 0.0056,0.02362 0,0.0069 -0.0042,0.02084 -0.04445,0.0014 -0.06251,0.0014 -0.07085,0 -0.25005,-0.0042 l -0.138916,-0.0042 -0.168089,0.0028 q -0.01667,0 -0.03473,-0.0014 -0.01667,-0.0028 -0.02917,-0.0028 h -0.03056 q -0.01528,-0.0014 -0.02778,-0.0083 0,-0.01945 0.0069,-0.03751 0.01667,-0.0083 0.03056,-0.0097 l 0.145862,-0.0097 q 0.05696,-0.0028 0.08613,-0.01528 0.0083,-0.02501 0.0083,-0.03751 0,-0.02501 -0.03612,-0.129192 -0.02501,-0.06946 -0.04445,-0.131971 -0.01806,-0.06251 -0.147252,-0.411193 -0.05695,-0.0097 -0.10002,-0.0097 l -0.297281,0.0028 -0.08752,-0.0014 q -0.04723,0 -0.104188,0.0069 -0.01806,0.04167 -0.02362,0.05973 l -0.122246,0.382021 q -0.07779,0.218099 -0.07779,0.240325 0,0.0125 0.0125,0.04167 0.02917,0.0083 0.07779,0.01528 l 0.188927,0.01667 q 0.01528,0.0125 0.01528,0.02223 0,0.0069 -0.0042,0.02084 -0.06251,0.0014 -0.09585,0.0014 -0.111133,0 -0.258385,-0.0069 -0.06807,-0.0028 -0.09724,-0.0028 -0.02917,0 -0.101409,0.0028 -0.04723,0.0028 -0.06807,0.0028 -0.03334,0 -0.08613,-0.0042 v -0.0083 q 0,-0.0097 0.0056,-0.02639 z m 0.662632,-0.833499 q 0.14864,0.0083 0.338956,0.0083 0.108355,0 0.190315,-0.0069 -0.01389,-0.05418 -0.03195,-0.101409 -0.0903,-0.241714 -0.10002,-0.266719 l -0.126414,-0.320898 -0.01389,-0.02501 q -0.0083,0.01667 -0.06112,0.143084 -0.08891,0.21671 -0.127803,0.337568 -0.01806,0.05418 -0.03751,0.108354 -0.01945,0.05279 -0.02501,0.07502 -0.0042,0.02084 -0.01389,0.04306 z m 1.677029,0.836277 q 0.202818,-0.02361 0.229212,-0.03334 0.01806,-0.0069 0.03334,-0.04168 v -0.01528 q 0,-0.03473 0.01111,-0.251439 0.0028,-0.06112 0.0028,-0.119468 l -0.0042,-0.165311 0.0028,-0.187537 -0.0014,-0.348681 0.0014,-0.250049 q 0.0014,-0.158365 -0.02501,-0.193094 -0.02501,-0.03473 -0.13197,-0.04862 -0.106966,-0.01528 -0.118079,-0.02223 -0.01111,-0.0069 -0.01111,-0.02223 0,-0.0097 0.0042,-0.02501 0.01389,-0.0125 0.0639,-0.01389 0.0069,0 0.03751,-0.0028 0.03195,-0.0042 0.05973,-0.0042 h 0.113911 l 0.365351,-0.0042 q 0.309784,0 0.433419,0.04584 0.125025,0.04584 0.198651,0.155587 0.07363,0.108354 0.07363,0.243103 0,0.255607 -0.268109,0.390356 -0.04584,0.02362 -0.07224,0.04168 0.04723,0.10002 0.131971,0.240325 l 0.176424,0.302838 q 0.105576,0.1667 0.145862,0.209764 0.04029,0.04167 0.09724,0.06946 0.05834,0.02778 0.194483,0.05279 0.0014,0.01389 0.0014,0.02223 0,0.0083 -0.0014,0.02084 -0.190316,0.0028 -0.445922,0.0028 -0.01806,0 -0.05001,-0.0028 -0.09863,-0.188927 -0.231991,-0.41536 l -0.205596,-0.375075 q -0.04167,-0.05835 -0.06946,-0.07224 -0.02639,-0.01528 -0.07085,-0.01528 l -0.118079,0.0014 -0.0389,-0.0014 q -0.0042,0.04445 -0.0042,0.18198 v 0.475095 q -0.0014,0.02639 0.01111,0.07362 0.01111,0.0264 0.03751,0.04307 0.02778,0.01528 0.156976,0.04723 l 0.05695,0.01389 q 0.01111,0.01389 0.01111,0.03751 -0.03751,0.0069 -0.05279,0.0069 -0.125024,0 -0.176424,-0.0028 -0.02639,-0.0014 -0.04306,-0.0014 l -0.188926,0.0028 -0.184759,-0.0014 q -0.0125,0 -0.126414,0.0042 l -0.02778,-0.0056 -0.0028,-0.01389 q 0,-0.0125 0.01945,-0.02917 z m 0.516769,-0.908513 q 0.03751,0.0014 0.05557,0.0014 0.100019,0 0.230601,-0.02362 0.09168,-0.01806 0.148641,-0.05835 0.05695,-0.04167 0.09446,-0.122247 0.0389,-0.08057 0.0389,-0.166699 0,-0.09446 -0.05973,-0.20004 -0.04584,-0.08057 -0.155586,-0.134749 -0.108355,-0.05418 -0.261163,-0.05418 -0.03751,0 -0.09724,0.0042 -0.0056,0.07224 -0.0056,0.111133 l 0.0069,0.259774 -0.0014,0.106966 q 0,0.108355 0.0056,0.276444 z m 2.60777,-0.764041 q 0.01111,0.09168 0.01111,0.105576 l -0.0056,0.123636 q -0.0028,0.07918 -0.0069,0.101409 -0.0125,0.0056 -0.02084,0.0056 l -0.0125,-0.0028 q -0.04445,-0.194483 -0.151419,-0.283389 -0.105576,-0.08891 -0.258385,-0.08891 -0.158364,0 -0.259773,0.08891 -0.10141,0.08891 -0.10141,0.206985 0,0.0903 0.07085,0.165311 0.07085,0.07502 0.362572,0.225045 0.222266,0.1153 0.318119,0.188926 0.09585,0.07224 0.144473,0.168089 0.04862,0.09585 0.04862,0.213931 0,0.148641 -0.07779,0.279223 -0.0764,0.130581 -0.206985,0.197261 -0.130582,0.06529 -0.345902,0.06529 -0.187537,0 -0.359794,-0.05973 -0.101409,-0.03612 -0.123636,-0.05834 -0.02223,-0.02223 -0.02223,-0.04723 0,-0.01528 0.0028,-0.0389 0.01945,-0.163922 0.02084,-0.269498 0.0028,-0.06529 0.0097,-0.0764 0.0056,-0.0097 0.02084,-0.0097 0.0125,0 0.01945,0.0097 0.0083,0.0083 0.01111,0.03334 0.01528,0.170868 0.158365,0.305617 0.141694,0.134749 0.320897,0.134749 0.109744,0 0.201429,-0.04584 0.09307,-0.04584 0.144473,-0.13197 0.05279,-0.08752 0.05279,-0.169478 0,-0.112523 -0.07918,-0.205597 -0.07918,-0.09307 -0.318119,-0.21671 -0.238937,-0.125025 -0.311173,-0.18198 -0.11669,-0.09307 -0.175035,-0.197262 -0.04306,-0.08057 -0.04306,-0.187537 0,-0.193094 0.152808,-0.326454 0.152808,-0.134749 0.409804,-0.134749 0.141695,0 0.244493,0.03195 0.07502,0.02501 0.154197,0.08196 z m 1.646775,-0.0069 v -0.04306 q 0.02361,-0.0056 0.03751,-0.0069 l 0.130582,-0.0069 q 0.162532,-0.01389 0.363961,-0.02223 0.08057,-0.0028 0.254217,-0.0028 0.236158,0 0.345902,0.03473 0.159754,0.0514 0.237547,0.155587 0.07918,0.102798 0.07918,0.229212 0,0.205596 -0.293114,0.345902 l -0.0069,0.01111 q 0.15003,0.04029 0.245882,0.112523 0.09585,0.07224 0.147252,0.176424 0.03751,0.0764 0.03751,0.20004 0,0.206985 -0.188926,0.369517 -0.187538,0.161144 -0.518159,0.161144 h -0.206985 l -0.209764,0.0069 q -0.277833,0.0028 -0.325065,0.0028 -0.04862,0 -0.09585,-0.0042 v -0.01528 q 0,-0.01667 0.0069,-0.02361 0.0083,-0.0083 0.03195,-0.01389 0.173646,-0.03612 0.195873,-0.04862 0.02361,-0.01389 0.03195,-0.04306 0.01667,-0.05557 0.01667,-0.286168 0,-0.02084 -0.0014,-0.05279 -0.0028,-0.09307 -0.0028,-0.106966 v -0.144473 q 0,-0.36674 -0.0083,-0.640405 l -0.0014,-0.279222 -0.0014,-0.03473 q -0.11808,-0.01667 -0.208375,-0.02084 -0.05835,-0.0014 -0.09446,-0.0097 z m 0.551498,0.702917 q 0.06946,0.01389 0.145862,0.01389 0.30006,0 0.407026,-0.131971 0.106965,-0.13197 0.106965,-0.262552 0,-0.05835 -0.01945,-0.118079 -0.01806,-0.06112 -0.06668,-0.109744 -0.04723,-0.04862 -0.118079,-0.07224 -0.120857,-0.04029 -0.247271,-0.04029 -0.118079,0 -0.219488,0.02639 -0.0014,0.02917 -0.0014,0.04306 0,0.01389 0.0028,0.07918 0.0014,0.04167 0.0014,0.08335 l -0.0042,0.168089 0.0014,0.10002 0.0097,0.195872 z m 0.326454,0.944633 q 0.137527,-0.0097 0.230601,-0.05834 0.04306,-0.02223 0.101409,-0.07918 0.05973,-0.05835 0.09169,-0.138916 0.03334,-0.08057 0.03334,-0.155587 0,-0.05696 -0.02362,-0.140305 -0.02223,-0.08335 -0.07779,-0.145863 -0.05418,-0.0639 -0.162532,-0.104187 -0.108355,-0.04167 -0.238937,-0.04167 -0.252828,0 -0.283389,0.0097 -0.0014,0.03195 -0.0014,0.04723 l 0.0014,0.0514 -0.0014,0.104187 v 0.118079 q 0.0042,0.326454 0.01528,0.386188 0.01111,0.05973 0.07502,0.102798 0.06529,0.04307 0.240326,0.04445 z m 0.962999,0.579282 q 0.02639,-0.01806 0.04723,-0.01806 0.0639,0 0.145863,0.07363 0.01389,0.0125 0.02084,0.01806 l 0.0069,0.0069 q 0.03334,0.02778 0.06946,0.02778 0.05279,0 0.105577,-0.03612 0.05279,-0.03612 0.08474,-0.10002 0.04306,-0.08891 0.06251,-0.20004 0.02084,-0.111133 0.02084,-0.269498 l -0.0014,-0.216709 0.0028,-0.148641 q 0,-0.151419 -0.01111,-0.466759 l -0.0083,-0.519548 0.0014,-0.268109 q 0.0014,-0.03612 -0.0125,-0.06251 -0.0083,-0.01389 -0.03056,-0.02501 -0.02084,-0.01111 -0.06112,-0.0125 l -0.102798,-0.0069 q -0.04862,0 -0.06668,-0.0097 -0.0056,-0.02084 -0.0056,-0.03195 l 0.0014,-0.01667 q 0.03056,0 0.07502,0.0028 0.08613,0.0042 0.168089,0.0042 0.0389,0 0.102798,-0.0014 0.04862,-0.0028 0.06807,-0.0028 h 0.204207 q 0.04306,0 0.09307,0.0042 0,0.03195 -0.0028,0.05001 -0.119468,0.0056 -0.151419,0.01667 -0.03195,0.01111 -0.04723,0.03056 -0.0097,0.0125 -0.0097,0.04862 l -0.0056,0.144474 0.0014,0.03473 q 0.0028,0.02501 0.0028,0.09585 v 0.05557 q 0,0.04862 0.0014,0.08613 0.0028,0.05557 0.0028,0.06668 0,0.0125 -0.0028,0.06529 -0.0014,0.01528 -0.0014,0.02639 l 0.01667,0.386188 -0.0028,0.24866 v 0.161143 q 0,0.138917 -0.05279,0.387577 -0.0389,0.180592 -0.140305,0.327843 -0.101409,0.148641 -0.20004,0.202818 -0.09863,0.05418 -0.262552,0.05418 -0.08752,0 -0.140306,-0.04167 -0.03612,-0.02917 -0.03612,-0.07779 0,-0.05835 0.05001,-0.09446 z m 1.528388,-0.527883 q 0.01389,-0.0125 0.02362,-0.01528 0.02362,-0.0069 0.08057,-0.01111 0.134749,-0.0083 0.1667,-0.02501 0.01945,-0.02778 0.01945,-0.07779 l -0.0014,-0.09724 0.0014,-0.352848 -0.0028,-0.1667 0.0014,-0.34868 -0.0069,-0.395912 q -0.0014,-0.141695 -0.01806,-0.159754 -0.02501,-0.02639 -0.148641,-0.03056 -0.05279,-0.0014 -0.09307,-0.0083 -0.01806,-0.0097 -0.01806,-0.02501 0,-0.01111 0.0069,-0.02639 0.0125,-0.0069 0.02223,-0.0069 0.01945,0 0.04723,0.0014 0.08196,0.0069 0.169478,0.0069 l 0.102798,-0.0028 0.244493,0.0056 q 0.18337,0 0.286168,-0.0042 0.102799,-0.0042 0.138917,-0.0042 0.03195,0 0.158365,0.0056 l 0.197261,-0.0014 0.02362,0.0042 0.115301,-0.0042 0.01389,0.0069 q 0.0069,0.01111 0.0097,0.02362 0,0.01945 -0.0069,0.05973 -0.0056,0.04028 -0.0056,0.05001 0,0.144473 0.0097,0.244493 -0.0014,0.0083 -0.0083,0.01111 -0.01528,0 -0.02778,-0.0042 -0.01528,-0.0264 -0.04167,-0.09307 -0.02501,-0.06668 -0.0764,-0.154197 -0.03473,-0.05835 -0.05418,-0.06946 -0.01945,-0.01111 -0.08057,-0.01111 -0.0125,0 -0.126414,-0.0028 -0.03056,-0.0014 -0.05973,-0.0014 l -0.395912,0.0083 h -0.03473 q -0.0764,0 -0.09168,0.01945 -0.02362,0.03334 -0.02362,0.195873 0,0.01667 0.0069,0.333399 v 0.193094 q 0.01528,0.0042 0.03334,0.0042 h 0.02361 q 0.02362,0 0.06946,0.0014 0.07224,0.0028 0.09724,0.0028 0.01667,0 0.02917,-0.0014 0.150029,-0.0056 0.386187,-0.0056 0.07363,-0.0125 0.08613,-0.02917 0.02084,-0.02501 0.03056,-0.130582 0.01111,-0.105576 0.04723,-0.119468 0.01806,0 0.03334,0.0069 0.0028,0.01111 0.0028,0.02084 0,0.0097 -0.0028,0.03195 -0.0069,0.0514 -0.0069,0.322287 0,0.07224 0.0069,0.161143 0.0083,0.08891 0.0083,0.09585 0,0.0125 -0.0042,0.03334 -0.01111,0.0056 -0.01806,0.0056 h -0.0097 q -0.02223,-0.0389 -0.04306,-0.120858 -0.03612,-0.140305 -0.0764,-0.175034 -0.0389,-0.03612 -0.127803,-0.03612 -0.01945,0 -0.07085,0.0028 -0.0514,0.0014 -0.152808,0.0014 h -0.0903 q -0.193094,0 -0.252828,0.0083 l -0.0014,0.04584 0.0014,0.255607 -0.0014,0.161143 0.0014,0.156975 q 0.0014,0.141695 0.01806,0.163922 0.02361,0.03056 0.102798,0.03056 l 0.08474,-0.0014 q 0.01111,0 0.08613,0.0028 0.0764,0.0014 0.187537,0.0014 0.268109,0 0.357016,-0.02223 0.08891,-0.02362 0.145862,-0.08196 0.05835,-0.05834 0.145862,-0.251438 0.0264,-0.05696 0.05279,-0.05696 0.0125,0 0.02778,0.01111 -0.04029,0.137527 -0.04584,0.180592 -0.01528,0.09724 -0.01806,0.19865 0,0.04584 -0.02223,0.0764 h -0.03056 l -0.390355,0.0042 -0.175035,-0.0014 -0.41675,0.0056 h -0.169478 q -0.03195,0 -0.05973,0.0014 -0.25005,0.01111 -0.368129,0.01111 -0.02084,0 -0.02917,-0.0069 -0.0069,-0.0069 -0.0069,-0.02084 z m 2.195188,-0.01945 q 0.202818,-0.02361 0.229212,-0.03334 0.01806,-0.0069 0.03334,-0.04168 v -0.01528 q 0,-0.03473 0.01111,-0.251439 0.0028,-0.06112 0.0028,-0.119468 l -0.0042,-0.165311 0.0028,-0.187537 -0.0014,-0.348681 0.0014,-0.250049 q 0.0014,-0.158365 -0.02501,-0.193094 -0.025,-0.03473 -0.13197,-0.04862 -0.106966,-0.01528 -0.118079,-0.02223 -0.01111,-0.0069 -0.01111,-0.02223 0,-0.0097 0.0042,-0.02501 0.01389,-0.0125 0.0639,-0.01389 0.0069,0 0.03751,-0.0028 0.03195,-0.0042 0.05973,-0.0042 h 0.113912 l 0.36535,-0.0042 q 0.309784,0 0.43342,0.04584 0.125024,0.04584 0.19865,0.155587 0.07363,0.108354 0.07363,0.243103 0,0.255607 -0.268109,0.390356 -0.04584,0.02362 -0.07224,0.04168 0.04723,0.10002 0.131971,0.240325 l 0.176424,0.302838 q 0.105577,0.1667 0.145862,0.209764 0.04029,0.04167 0.09724,0.06946 0.05835,0.02778 0.194483,0.05279 0.0014,0.01389 0.0014,0.02223 0,0.0083 -0.0014,0.02084 -0.190316,0.0028 -0.445922,0.0028 -0.01806,0 -0.05001,-0.0028 -0.09863,-0.188927 -0.23199,-0.41536 l -0.205597,-0.375075 q -0.04167,-0.05835 -0.06946,-0.07224 -0.02639,-0.01528 -0.07085,-0.01528 l -0.118079,0.0014 -0.0389,-0.0014 q -0.0042,0.04445 -0.0042,0.18198 v 0.475095 q -0.0014,0.02639 0.01111,0.07362 0.01111,0.0264 0.03751,0.04307 0.02778,0.01528 0.156976,0.04723 l 0.05696,0.01389 q 0.01111,0.01389 0.01111,0.03751 -0.03751,0.0069 -0.05279,0.0069 -0.125025,0 -0.176424,-0.0028 -0.0264,-0.0014 -0.04306,-0.0014 l -0.188927,0.0028 -0.184759,-0.0014 q -0.0125,0 -0.126414,0.0042 l -0.02778,-0.0056 -0.0028,-0.01389 q 0,-0.0125 0.01945,-0.02917 z m 0.516769,-0.908513 q 0.03751,0.0014 0.05557,0.0014 0.10002,0 0.230601,-0.02362 0.09168,-0.01806 0.148641,-0.05835 0.05696,-0.04167 0.09446,-0.122247 0.0389,-0.08057 0.0389,-0.166699 0,-0.09446 -0.05973,-0.20004 -0.04584,-0.08057 -0.155587,-0.134749 -0.108355,-0.05418 -0.261163,-0.05418 -0.03751,0 -0.09724,0.0042 -0.0056,0.07224 -0.0056,0.111133 l 0.0069,0.259774 -0.0014,0.106966 q 0,0.108355 0.0056,0.276444 z m 1.581178,0.908513 q 0.202818,-0.02361 0.229212,-0.03334 0.01806,-0.0069 0.03334,-0.04168 v -0.01528 q 0,-0.03473 0.01111,-0.251439 0.0028,-0.06112 0.0028,-0.119468 l -0.0042,-0.165311 0.0028,-0.187537 -0.0014,-0.348681 0.0014,-0.250049 q 0.0014,-0.158365 -0.02501,-0.193094 -0.02501,-0.03473 -0.131971,-0.04862 -0.106966,-0.01528 -0.118079,-0.02223 -0.01111,-0.0069 -0.01111,-0.02223 0,-0.0097 0.0042,-0.02501 0.01389,-0.0125 0.0639,-0.01389 0.0069,0 0.03751,-0.0028 0.03195,-0.0042 0.05973,-0.0042 h 0.113912 l 0.36535,-0.0042 q 0.309784,0 0.43342,0.04584 0.125025,0.04584 0.19865,0.155587 0.07363,0.108354 0.07363,0.243103 0,0.255607 -0.268109,0.390356 -0.04584,0.02362 -0.07224,0.04168 0.04723,0.10002 0.13197,0.240325 l 0.176424,0.302838 q 0.105577,0.1667 0.145863,0.209764 0.04028,0.04167 0.09724,0.06946 0.05835,0.02778 0.194483,0.05279 0.0014,0.01389 0.0014,0.02223 0,0.0083 -0.0014,0.02084 -0.190315,0.0028 -0.445922,0.0028 -0.01806,0 -0.05001,-0.0028 -0.09863,-0.188927 -0.23199,-0.41536 L 39.97188,34.994418 q -0.04167,-0.05835 -0.06946,-0.07224 -0.02639,-0.01528 -0.07085,-0.01528 l -0.118079,0.0014 -0.0389,-0.0014 q -0.0042,0.04445 -0.0042,0.18198 v 0.475095 q -0.0014,0.02639 0.01111,0.07362 0.01111,0.0264 0.03751,0.04307 0.02778,0.01528 0.156976,0.04723 l 0.05696,0.01389 q 0.01111,0.01389 0.01111,0.03751 -0.03751,0.0069 -0.05279,0.0069 -0.125025,0 -0.176424,-0.0028 -0.02639,-0.0014 -0.04306,-0.0014 l -0.188927,0.0028 -0.184759,-0.0014 q -0.0125,0 -0.126414,0.0042 l -0.02778,-0.0056 -0.0028,-0.01389 q 0,-0.0125 0.01945,-0.02917 z m 0.516769,-0.908513 q 0.03751,0.0014 0.05557,0.0014 0.10002,0 0.230601,-0.02362 0.09168,-0.01806 0.148641,-0.05835 0.05696,-0.04167 0.09446,-0.122247 0.0389,-0.08057 0.0389,-0.166699 0,-0.09446 -0.05973,-0.20004 -0.04584,-0.08057 -0.155587,-0.134749 -0.108355,-0.05418 -0.261163,-0.05418 -0.03751,0 -0.09724,0.0042 -0.0056,0.07224 -0.0056,0.111133 l 0.0069,0.259774 -0.0014,0.106966 q 0,0.108355 0.0056,0.276444 z m 1.572842,0.927962 q 0.01389,-0.0125 0.02362,-0.01528 0.02362,-0.0069 0.08057,-0.01111 0.134749,-0.0083 0.1667,-0.02501 0.01945,-0.02778 0.01945,-0.07779 l -0.0014,-0.09724 0.0014,-0.352848 -0.0028,-0.1667 0.0014,-0.34868 -0.0069,-0.395912 q -0.0014,-0.141695 -0.01806,-0.159754 -0.02501,-0.02639 -0.14864,-0.03056 -0.05279,-0.0014 -0.09307,-0.0083 -0.01806,-0.0097 -0.01806,-0.02501 0,-0.01111 0.0069,-0.02639 0.0125,-0.0069 0.02223,-0.0069 0.01945,0 0.04723,0.0014 0.08196,0.0069 0.169478,0.0069 l 0.102798,-0.0028 0.244493,0.0056 q 0.18337,0 0.286168,-0.0042 0.102798,-0.0042 0.138917,-0.0042 0.03195,0 0.158364,0.0056 l 0.197262,-0.0014 0.02362,0.0042 0.1153,-0.0042 0.01389,0.0069 q 0.0069,0.01111 0.0097,0.02362 0,0.01945 -0.0069,0.05973 -0.0056,0.04028 -0.0056,0.05001 0,0.144473 0.0097,0.244493 -0.0014,0.0083 -0.0083,0.01111 -0.01528,0 -0.02778,-0.0042 -0.01528,-0.0264 -0.04167,-0.09307 -0.02501,-0.06668 -0.07641,-0.154197 -0.03473,-0.05835 -0.05418,-0.06946 -0.01945,-0.01111 -0.08057,-0.01111 -0.0125,0 -0.126414,-0.0028 -0.03056,-0.0014 -0.05973,-0.0014 l -0.395912,0.0083 h -0.03473 q -0.0764,0 -0.09168,0.01945 -0.02362,0.03334 -0.02362,0.195873 0,0.01667 0.0069,0.333399 v 0.193094 q 0.01528,0.0042 0.03334,0.0042 h 0.02362 q 0.02362,0 0.06946,0.0014 0.07224,0.0028 0.09724,0.0028 0.01667,0 0.02917,-0.0014 0.15003,-0.0056 0.386188,-0.0056 0.07363,-0.0125 0.08613,-0.02917 0.02084,-0.02501 0.03056,-0.130582 0.01111,-0.105576 0.04723,-0.119468 0.01806,0 0.03334,0.0069 0.0028,0.01111 0.0028,0.02084 0,0.0097 -0.0028,0.03195 -0.0069,0.0514 -0.0069,0.322287 0,0.07224 0.0069,0.161143 0.0083,0.08891 0.0083,0.09585 0,0.0125 -0.0042,0.03334 -0.01111,0.0056 -0.01806,0.0056 h -0.0097 q -0.02223,-0.0389 -0.04306,-0.120858 -0.03612,-0.140305 -0.0764,-0.175034 -0.0389,-0.03612 -0.127804,-0.03612 -0.01945,0 -0.07085,0.0028 -0.0514,0.0014 -0.152808,0.0014 h -0.0903 q -0.193094,0 -0.252828,0.0083 l -0.0014,0.04584 0.0014,0.255607 -0.0014,0.161143 0.0014,0.156975 q 0.0014,0.141695 0.01806,0.163922 0.02362,0.03056 0.102798,0.03056 l 0.08474,-0.0014 q 0.01111,0 0.08613,0.0028 0.0764,0.0014 0.187537,0.0014 0.268109,0 0.357015,-0.02223 0.08891,-0.02362 0.145863,-0.08196 0.05834,-0.05834 0.145862,-0.251438 0.02639,-0.05696 0.05279,-0.05696 0.0125,0 0.02778,0.01111 -0.04029,0.137527 -0.04584,0.180592 -0.01528,0.09724 -0.01806,0.19865 0,0.04584 -0.02223,0.0764 h -0.03056 l -0.390356,0.0042 -0.175034,-0.0014 -0.41675,0.0056 h -0.169478 q -0.03195,0 -0.05973,0.0014 -0.25005,0.01111 -0.368129,0.01111 -0.02084,0 -0.02917,-0.0069 -0.0069,-0.0069 -0.0069,-0.02084 z"
     id="text16"
     aria-label="LARS BJERRE" />
  <path
     id="rect16"
     style="fill-opacity:0;stroke-width:0.264583"
     d="M 7.4168334,32.700138 H 58.032701 v 1.520937 H 7.4168334 Z" />
</svg>
